<?xml version="1.0" encoding="UTF-8" standalone="no"?>
<!-- Created with Inkscape (http://www.inkscape.org/) -->

<svg
   width="6.349999mm"
   height="6.3500004mm"
   viewBox="0 0 6.349999 6.3500004"
   version="1.1"
   id="svg1"
   xml:space="preserve"
   xmlns:inkscape="http://www.inkscape.org/namespaces/inkscape"
   xmlns:sodipodi="http://sodipodi.sourceforge.net/DTD/sodipodi-0.dtd"
   xmlns:xlink="http://www.w3.org/1999/xlink"
   xmlns="http://www.w3.org/2000/svg"
   xmlns:svg="http://www.w3.org/2000/svg"><sodipodi:namedview
     id="namedview1"
     pagecolor="#ffffff"
     bordercolor="#000000"
     borderopacity="0.25"
     inkscape:showpageshadow="2"
     inkscape:pageopacity="0.0"
     inkscape:pagecheckerboard="0"
     inkscape:deskcolor="#d1d1d1"
     inkscape:document-units="mm" /><defs
     id="defs1"><linearGradient
       id="linearGradient12"
       inkscape:collect="always"><stop
         style="stop-color:#c50000;stop-opacity:1;"
         offset="0"
         id="stop13" /><stop
         style="stop-color:#ff1212;stop-opacity:1;"
         offset="1"
         id="stop14" /></linearGradient><linearGradient
       id="linearGradient2"
       inkscape:collect="always"><stop
         style="stop-color:#a30000;stop-opacity:1;"
         offset="0"
         id="stop2" /><stop
         style="stop-color:#e30000;stop-opacity:0.98288506;"
         offset="1"
         id="stop3" /></linearGradient><radialGradient
       inkscape:collect="always"
       xlink:href="#linearGradient2"
       id="radialGradient3"
       cx="12"
       cy="12"
       fx="12"
       fy="12"
       r="10.5"
       gradientUnits="userSpaceOnUse" /><linearGradient
       inkscape:collect="always"
       xlink:href="#linearGradient12"
       id="linearGradient14"
       x1="1.5"
       y1="12"
       x2="22.5"
       y2="12"
       gradientUnits="userSpaceOnUse" /></defs><g
     inkscape:label="Layer 1"
     inkscape:groupmode="layer"
     id="layer1"
     transform="translate(-12.320545,-55.895834)"><g
       style="fill:url(#radialGradient3);fill-opacity:1"
       id="g1"
       transform="matrix(0.30238095,0,0,0.30238095,11.866973,55.442262)"
       inkscape:export-filename="g1.svg"
       inkscape:export-xdpi="96"
       inkscape:export-ydpi="96"><path
         fill-rule="evenodd"
         clip-rule="evenodd"
         d="m 3.5,12 c 0,-4.69442 3.80558,-8.5 8.5,-8.5 4.6944,0 8.5,3.80558 8.5,8.5 0,4.6944 -3.8056,8.5 -8.5,8.5 -1.0284,0 -2.01413,-0.1826 -2.92655,-0.5172 C 9.64822,18.4359 10.2115,16.8847 10.7517,15.3255 11.326,15.7348 12.0668,16 13,16 14.935,16 16.9749,14.7247 17.4806,12.1961 18.1155,9.02148 15.5728,6 12,6 10.4972,6 9.01887,6.6037 7.91298,7.56243 6.80483,8.52311 6,9.90687 6,11.5 c 0,0.7746 0.23394,1.6378 0.79149,2.2057 0.38558,0.3862 1.02938,0.3876 1.41562,0.0014 C 8.59019,13.324 8.59749,12.7074 8.22899,12.3155 7.44315,11.3348 8.47852,9.71907 9.22306,9.07361 9.99585,8.40366 11.0175,8 12,8 14.4272,8 15.8845,9.97852 15.5194,11.8039 15.2165,13.3183 14.065,14 13,14 c -0.8179,0 -1.2584,-0.3453 -1.5401,-0.792 0.1538,-0.4843 0.2855,-0.9242 0.3788,-1.2817 0.1924,-0.7377 0.3086,-1.6261 -0.3548,-2.1789 C 10.9908,9.33644 10.4087,9.42759 10.0528,9.60557 9.39135,9.93629 9,10.7099 9,11.5 9,11.9414 9.06873,12.6253 9.31675,13.3315 8.67824,15.258 7.98579,17.167 7.27924,19.0696 5.00045,17.5449 3.5,14.9477 3.5,12 Z M 12,1.5 C 6.20101,1.5 1.5,6.20101 1.5,12 1.5,17.799 6.20101,22.5 12,22.5 17.799,22.5 22.5,17.799 22.5,12 22.5,6.20101 17.799,1.5 12,1.5 Z"
         fill="#000000"
         id="path1"
         style="fill:url(#linearGradient14);fill-opacity:1;stroke:none;stroke-width:0.99874;stroke-dasharray:none" /></g></g></svg>
